<?xml version="1.0" encoding="UTF-8" standalone="no"?>
<svg
   xmlns:dc="http://purl.org/dc/elements/1.1/"
   xmlns:cc="http://creativecommons.org/ns#"
   xmlns:rdf="http://www.w3.org/1999/02/22-rdf-syntax-ns#"
   xmlns:svg="http://www.w3.org/2000/svg"
   xmlns="http://www.w3.org/2000/svg"
   xmlns:sodipodi="http://sodipodi.sourceforge.net/DTD/sodipodi-0.dtd"
   xmlns:inkscape="http://www.inkscape.org/namespaces/inkscape"
   fill="#000000"
   height="800px"
   width="800px"
   version="1.1"
   id="Capa_1"
   viewBox="0 0 430.344 430.344"
   xml:space="preserve"
   sodipodi:docname="river.svg"
   inkscape:export-filename="C:\Users\94\Desktop\Cartographie\Epage_Largue\images\icons\river.png"
   inkscape:export-xdpi="70"
   inkscape:export-ydpi="70"
   inkscape:version="1.0 (4035a4fb49, 2020-05-01)"><metadata
   id="metadata13"><rdf:RDF><cc:Work
       rdf:about=""><dc:format>image/svg+xml</dc:format><dc:type
         rdf:resource="http://purl.org/dc/dcmitype/StillImage" /></cc:Work></rdf:RDF></metadata><defs
   id="defs11" /><sodipodi:namedview
   inkscape:document-rotation="0"
   pagecolor="#ffffff"
   bordercolor="#666666"
   borderopacity="1"
   objecttolerance="10"
   gridtolerance="10"
   guidetolerance="10"
   inkscape:pageopacity="0"
   inkscape:pageshadow="2"
   inkscape:window-width="1920"
   inkscape:window-height="1017"
   id="namedview9"
   showgrid="false"
   inkscape:zoom="0.75130095"
   inkscape:cx="538.43732"
   inkscape:cy="472.61652"
   inkscape:window-x="-8"
   inkscape:window-y="-8"
   inkscape:window-maximized="1"
   inkscape:current-layer="g6" />
<g
   id="g6">
	<path
   sodipodi:nodetypes="scscccssscs"
   d="m 103.18153,227.47056 c 0,-11.498 -3.432003,-27.447 -8.744003,-40.631 -4.86,-12.065 -13.186,-26.446 -25.249,-26.446 -5.195,0 -10.201287,2.92414 -13.525,7.05172 0,0 -28.696825,46.16283 -16.974,76.42428 5.291001,11.661 16.973,13.029 24.998,13.498 v 34.149 c 0,3.038 2.462,5.5 5.5,5.5 3.038,0 5.5,-2.462 5.5,-5.5 v -34.148 c 11.089,-0.65 28.494003,-4.692 28.494003,-29.898 z"
   id="path2"
   style="fill:#ffffff;fill-opacity:1"
   inkscape:export-xdpi="200"
   inkscape:export-ydpi="200" />
	<path
   d="m 425.004,118.901 c -5.759,-0.168 -11.53,-0.013 -17.308,0.427 v -7.686 c 6.106,-1.256 11.627,-5.118 11.627,-14.985 0,-8.435 -5.267,-30.627 -17.127,-30.627 -11.86,0 -17.126,22.192 -17.126,30.627 0,9.867 5.521,13.729 11.626,14.985 v 8.891 c -17.97,2.562 -35.997,8.026 -53.985,16.395 l -34.779,-5.509 c -1.038,-0.414 -1.989,-0.762 -2.664,-1.021 -39.424,-15.101 -80.676,-25.272 -122.671,-30.283 -3.296,-13.396 -10.331,-28.206 -20.953,-28.206 -9.773,0 -16.508,12.538 -20.09,24.977 -10.064,-0.39 -20.128,-0.469 -30.179,-0.27 v -4.155 c 6.106,-1.256 11.627,-5.118 11.627,-14.985 0,-8.435 -5.266,-30.627 -17.126,-30.627 -11.86,0 -17.128,22.192 -17.128,30.627 0,9.866 5.521,13.729 11.626,14.985 v 4.48 c -9.01,0.371 -18.005,0.981 -26.976,1.825 v -3.622 c 6.106,-1.256 11.626,-5.119 11.626,-14.985 0,-8.435 -5.266,-30.627 -17.126,-30.627 -11.86,0 -17.126,22.192 -17.126,30.627 0,9.867 5.521,13.729 11.626,14.985 v 4.785 c -18.156,2.103 -36.198,5.161 -54.042,9.201 -2.963,0.671 -4.821,3.616 -4.15,6.579 0.578,2.554 2.847,4.287 5.359,4.287 0.402,0 0.811,-0.044 1.219,-0.137 42.05,-9.521 85.208,-13.563 128.386,-12.057 -0.428,2.895 -0.648,5.534 -0.648,7.689 0,15.875 10.267,19.551 17.62,20.404 v 19.203 c 0,3.038 2.462,5.5 5.5,5.5 3.038,0 5.5,-2.462 5.5,-5.5 v -19.203 c 7.353,-0.853 17.621,-4.528 17.621,-20.404 0,-1.215 -0.069,-2.582 -0.205,-4.062 31.959,4.026 63.456,11.121 93.997,21.154 -21.388,2.483 -47.797,7.408 -72.651,14.965 -30.424,9.25 -69.055,25.797 -80.319,52.092 -3.712,8.666 -3.549,16.374 0.483,22.91 12.076,19.576 56.489,22.271 103.51,25.125 34.977,2.123 74.619,4.529 84.071,15.325 1.371,1.566 1.919,3.148 1.776,5.13 -0.849,11.761 -38.901,21.727 -55.224,25.466 -34.25,7.846 -78.637,13.915 -121.563,19.784 -78.14,10.684 -126.582,17.914 -137.42,31.353 97.622489,26.03757 209.92715,42.73516 315.95413,40.98415 1.452,-2.735 24.73087,-16.73515 33.23287,-23.27615 27.545,-21.191 69.172,-53.215 73.409,-91.406 1.796,-16.178 -3.433,-31.758 -15.539,-46.307 -31.898,-38.332 -115.214,-32.94 -176.047,-29.002 -20.318,1.315 -45.22,2.927 -52.28,0.646 0.646,-0.865 1.829,-2.202 3.982,-4.096 21.342,-18.774 84.632,-32.284 128.776,-38.685 -2.486,1.606 -4.971,3.267 -7.453,4.983 -2.498,1.728 -3.124,5.153 -1.396,7.652 1.068,1.544 2.784,2.373 4.529,2.373 1.078,0 2.169,-0.317 3.123,-0.976 37.777,-26.117 75.867,-38.801 113.173,-37.725 0.055,0.002 0.109,0.002 0.163,0.002 2.964,0 5.408,-2.358 5.495,-5.34 0.09,-3.038 -2.3,-5.571 -5.336,-5.659 z"
   id="path4"
   style="fill:#ffffff;fill-opacity:1"
   sodipodi:nodetypes="cccsssccccccscccsssccccsssccccsccscssscscccccssccccccccccccccsccscc" />
</g>
</svg>
